<?xml version="1.0" encoding="UTF-8"?>
<!DOCTYPE svg PUBLIC "-//W3C//DTD SVG 1.1//EN" "http://www.w3.org/Graphics/SVG/1.1/DTD/svg11.dtd">
<svg xmlns="http://www.w3.org/2000/svg" version="1.1" width="264px" height="228px" style="shape-rendering:geometricPrecision; text-rendering:geometricPrecision; image-rendering:optimizeQuality; fill-rule:evenodd; clip-rule:evenodd" xmlns:xlink="http://www.w3.org/1999/xlink">
<g><path style="opacity:0.998" fill="#f0be43" d="M 145.5,115.5 C 146.483,119.298 146.817,123.298 146.5,127.5C 147.791,127.263 148.791,127.596 149.5,128.5C 149.062,128.435 148.728,128.601 148.5,129C 158.286,144.573 167.286,160.573 175.5,177C 167.417,199.386 151.417,209.719 127.5,208C 104.713,203.215 92.7127,189.215 91.5,166C 92.5482,150.286 99.5482,137.953 112.5,129C 96.8333,128.667 81.1667,128.333 65.5,128C 50.8344,102.674 36.1677,77.3412 21.5,52C 21.6448,51.228 21.9781,50.5613 22.5,50C 45.527,49.1005 68.527,49.4338 91.5,51C 100.447,54.311 107.78,59.811 113.5,67.5C 123.717,85.5903 134.217,103.59 145,121.5C 145.495,119.527 145.662,117.527 145.5,115.5 Z"/></g>
<g><path style="opacity:1" fill="#a5d0bb" d="M 149.5,128.5 C 148.791,127.596 147.791,127.263 146.5,127.5C 146.817,123.298 146.483,119.298 145.5,115.5C 144.74,101.967 145.907,88.6336 149,75.5C 156.421,59.6945 168.921,51.1945 186.5,50C 206.073,49.1742 225.573,49.3409 245,50.5C 244.813,53.6619 243.813,56.6619 242,59.5C 232.042,76.9575 221.875,94.2909 211.5,111.5C 204.806,119.512 196.473,125.012 186.5,128C 174.171,128.5 161.838,128.667 149.5,128.5 Z"/></g>
</svg>
